# xmcd
#
# Track frame offsets:
# 150
# 8159
# 19982
# 25642
# 36147
# 43277
# 51355
# 73068
# 86513
# 107082
# 126658
# 142105
# 157934
# 173815
# 187892
# 198004
# 217631
# 235790
# 244346
# 259448
# 272747
# 284399
# 301087
# 304556
# 320461
#
# Disc length: 4383 seconds
#
# Revision: 0
# Processed by: cddbd v1.5.1PL2 Copyright (c) Steve Scherf et al.
# Submitted via: Audion 3.0.2 (http://www.panic.com/audion/)
#
DISCID=5f111d19
DTITLE=Minutemen Marching Band - There was a Dream...that was Rome
DYEAR=1900
DGENRE=
TTITLE0=Gladiator - Intro
TTITLE1=Gladiator - The Battle
TTITLE2=Gladiator - Honor Him
TTITLE3=Gladiator - The Emperor
TTITLE4=Gladiator - Finale
TTITLE5=Gladiator - Now We Are Free
TTITLE6=Madonna Medley
TTITLE7=MacArthur Park
TTITLE8=The Wind and the Lion
TTITLE9=Malaguena
TTITLE10=Smooth
TTITLE11=Displace This
TTITLE12=Birdland
TTITLE13=Legend of the One-Eyed Sailor
TTITLE14=Get It On
TTITLE15=Conga
TTITLE16=El Boro
TTITLE17=Red' Rhumba
TTITLE18=Salute to America's Finest
TTITLE19=God Bless the USA
TTITLE20=Cadence 2002
TTITLE21=Tommy - Overture
TTITLE22=Tommy - Uncle Ernie
TTITLE23=Tommy - Pinball Wizard
TTITLE24=There You'll Be
EXTD=
EXTT0=
EXTT1=
EXTT2=
EXTT3=
EXTT4=
EXTT5=
EXTT6=
EXTT7=
EXTT8=
EXTT9=
EXTT10=
EXTT11=
EXTT12=
EXTT13=
EXTT14=
EXTT15=
EXTT16=
EXTT17=
EXTT18=
EXTT19=
EXTT20=
EXTT21=
EXTT22=
EXTT23=
EXTT24=
PLAYORDER=
